<?xml version="1.0" encoding="UTF-8"?>
<svg version="1.1" xmlns="http://www.w3.org/2000/svg" width="512" height="512">
<path d="M0 0 C0.92253571 0.00182281 1.84507141 0.00364563 2.79556274 0.00552368 C16.8609967 0.05223854 30.53211857 0.64459921 44.375 3.3125 C45.27492676 3.47347168 46.17485352 3.63444336 47.10205078 3.80029297 C96.13661355 12.67613714 139.46570117 36.16175812 175.375 70.3125 C176.22481445 71.11929199 176.22481445 71.11929199 177.09179688 71.94238281 C185.68353085 80.15911845 193.3550952 88.71984253 200.375 98.3125 C200.90464355 99.03501953 201.43428711 99.75753906 201.97998047 100.50195312 C203.64375818 102.78509334 205.29405425 105.07718737 206.9375 107.375 C207.45070801 108.08954346 207.96391602 108.80408691 208.49267578 109.5402832 C213.86013264 117.1627232 213.86013264 117.1627232 214.375 120.3125 C213.10016752 122.91489526 211.87321082 124.93707594 210.1875 127.25 C209.72915771 127.90460205 209.27081543 128.5592041 208.79858398 129.23364258 C207.34936566 131.27975693 205.86963118 133.29936339 204.375 135.3125 C203.68954102 136.23772461 203.68954102 136.23772461 202.99023438 137.18164062 C196.62594085 145.68271577 189.74116817 153.66444643 182.375 161.3125 C181.74287598 161.97185547 181.11075195 162.63121094 180.45947266 163.31054688 C171.32603795 172.78737627 162.06748795 181.62105262 151.375 189.3125 C150.75302734 189.76286621 150.13105469 190.21323242 149.49023438 190.67724609 C114.64057795 215.72872022 75.12549368 232.11732242 32.375 237.3125 C31.67366943 237.40096191 30.97233887 237.48942383 30.24975586 237.58056641 C-34.5788071 245.33955285 -100.94735944 227.30113097 -152.69921875 187.61328125 C-153.66472656 186.85402344 -154.63023437 186.09476563 -155.625 185.3125 C-156.58019531 184.56355469 -157.53539062 183.81460938 -158.51953125 183.04296875 C-174.15950582 170.29408062 -188.85733564 155.73271919 -200.625 139.3125 C-201.5478142 138.04921401 -202.47100292 136.78620152 -203.39453125 135.5234375 C-205.84568115 132.14615392 -208.26765217 128.75616297 -210.625 125.3125 C-211.56859375 124.03052734 -211.56859375 124.03052734 -212.53125 122.72265625 C-213.625 120.3125 -213.625 120.3125 -213.16015625 118.0078125 C-211.01156381 114.23547462 -208.59141378 110.71373188 -206.0625 107.1875 C-205.52455811 106.43267334 -204.98661621 105.67784668 -204.43237305 104.90014648 C-200.0658808 98.8236448 -195.51598798 92.9795488 -190.625 87.3125 C-189.96757812 86.54421875 -189.31015625 85.7759375 -188.6328125 84.984375 C-177.39618049 72.17885475 -165.36900045 60.3864724 -151.625 50.3125 C-151.05571777 49.88775391 -150.48643555 49.46300781 -149.89990234 49.02539062 C-141.15549727 42.50714788 -132.08747662 36.72784811 -122.625 31.3125 C-121.50222656 30.65636719 -120.37945312 30.00023437 -119.22265625 29.32421875 C-83.03104974 9.00969496 -41.24072532 -0.16970344 0 0 Z M-40.625 29.3125 C-41.50397949 29.47878906 -42.38295898 29.64507812 -43.28857422 29.81640625 C-89.29665533 38.67515604 -127.65203486 61.45291488 -160.5625 94.125 C-161.36022827 94.91559814 -161.36022827 94.91559814 -162.17407227 95.72216797 C-168.4831442 101.30546957 -168.4831442 101.30546957 -171.625 108.3125 C-58.105 108.3125 55.415 108.3125 172.375 108.3125 C169.23973708 102.04197416 164.17659116 97.35124292 159.375 92.3125 C158.859375 91.76819336 158.34375 91.22388672 157.8125 90.66308594 C128.26528333 59.65697545 89.12068041 39.76378613 47.5625 30.5 C46.25865356 30.20754395 46.25865356 30.20754395 44.9284668 29.90917969 C30.25087837 26.82545847 15.64303331 25.93122203 0.6875 26 C-0.14160889 26.00182281 -0.97071777 26.00364563 -1.82495117 26.00552368 C-14.96732614 26.05399448 -27.70658417 26.73642336 -40.625 29.3125 Z M-166.625 135.3125 C-162.9864503 139.55747465 -159.57118981 143.44368646 -155.625 147.3125 C-154.59632813 148.41078125 -154.59632813 148.41078125 -153.546875 149.53125 C-145.99964061 157.45856094 -137.464461 163.89955771 -128.625 170.3125 C-127.70291748 170.98563232 -127.70291748 170.98563232 -126.76220703 171.67236328 C-80.6229013 204.97312851 -20.70780295 217.64972589 35.17919922 208.87207031 C84.82060071 200.70312889 126.31316207 177.25334644 161.625 142.1875 C162.19871338 141.61854004 162.77242676 141.04958008 163.36352539 140.46337891 C166.11149771 138.25221103 166.11149771 138.25221103 167.375 135.3125 C136.025 135.3125 104.675 135.3125 72.375 135.3125 C71.055 140.5925 69.735 145.8725 68.375 151.3125 C60.89066309 170.12448196 49.32056295 183.39387985 30.8984375 191.921875 C11.1401606 199.78816791 -10.6292317 200.04128432 -30.29296875 191.76953125 C-46.3323101 184.46902742 -59.23135263 172.29609991 -66.03515625 155.91796875 C-68.6130771 148.98088145 -70.15105168 142.68224162 -71.625 135.3125 C-102.975 135.3125 -134.325 135.3125 -166.625 135.3125 Z M-46.625 135.3125 C-41.28057463 151.3457761 -34.50573914 161.57724947 -19.375 169.1875 C-8.89169153 174.29181832 4.07704608 175.56028437 15.3125 171.75 C28.2691067 166.05544239 38.26610504 157.7423256 44.40234375 144.83203125 C45.59955984 141.73080885 46.46174719 138.50888484 47.375 135.3125 C16.355 135.3125 -14.665 135.3125 -46.625 135.3125 Z " fill="#000000" transform="translate(255.625,179.6875)"/>
<path d="M0 0 C3.33182974 2.58792679 5.6396263 5.34609989 6.54888916 9.51907349 C6.75947126 12.49936503 6.77953456 15.42288246 6.7265625 18.41015625 C6.72755951 19.49582382 6.72855652 20.58149139 6.72958374 21.70005798 C6.72491804 23.98704377 6.70555362 26.27404132 6.67236328 28.56079102 C6.62509961 32.05513549 6.63125975 35.54643177 6.64453125 39.04101562 C6.63337862 41.2682473 6.61915943 43.49546617 6.6015625 45.72265625 C6.60429672 47.28379906 6.60429672 47.28379906 6.60708618 48.8764801 C6.49032133 54.86655418 6.05119871 58.47157064 2 63 C-2.72135647 65.86984413 -6.50010122 66.4659034 -11.84765625 65.65234375 C-15.44561123 64.56185649 -17.38770183 62.67760562 -20 60 C-21.23680696 57.52638608 -21.14687766 55.84596224 -21.17700195 53.07885742 C-21.18983719 52.05406784 -21.20267242 51.02927826 -21.21589661 49.97343445 C-21.22328354 48.86200577 -21.23067047 47.75057709 -21.23828125 46.60546875 C-21.246353 45.46596268 -21.25442474 44.3264566 -21.26274109 43.15242004 C-21.27658987 40.73728969 -21.28730846 38.3221397 -21.29516602 35.90698242 C-21.31238115 32.21300176 -21.35626194 28.51991529 -21.40039062 24.82617188 C-21.41051706 22.48177743 -21.41903331 20.13737536 -21.42578125 17.79296875 C-21.45204338 16.13493477 -21.45204338 16.13493477 -21.47883606 14.44340515 C-21.45710721 6.76182573 -21.45710721 6.76182573 -19.10327148 2.83886719 C-13.52677245 -2.03660475 -6.67925315 -3.27719691 0 0 Z " fill="#000000" transform="translate(261,95)"/>
<path d="M0 0 C2.075663 1.898576 4.03794454 3.86801144 5.98660278 5.89672852 C6.70538101 6.62162476 7.42415924 7.346521 8.16471863 8.09338379 C10.4440251 10.39951403 12.70131898 12.72594487 14.95925903 15.05297852 C16.50284469 16.61809956 18.04775377 18.18191656 19.59402466 19.74438477 C22.40575397 22.59817762 25.21575569 25.45344531 28.00588989 28.32836914 C28.5657811 28.90413696 29.1256723 29.47990479 29.70252991 30.07312012 C32.68960351 33.42389966 32.29457622 36.78196546 32.23269653 41.07641602 C31.95288316 44.3616323 31.24461354 46.10783856 29.02175903 48.55297852 C25.58375332 51.00869688 22.80520132 51.82137308 18.64675903 51.67797852 C8.99240522 49.97098598 1.13600198 38.85345883 -5.58029175 32.13623047 C-7.36510695 30.35362724 -9.15781212 28.57921157 -10.95089722 26.80493164 C-12.09331231 25.66544674 -13.23525668 24.52548966 -14.37667847 23.38500977 C-14.90997772 22.85889603 -15.44327698 22.33278229 -15.99273682 21.79072571 C-20.01023636 17.74823388 -21.8039264 15.35422907 -22.35324097 9.67797852 C-22.24885576 5.37409598 -20.74533214 2.87348792 -17.97824097 -0.44702148 C-12.11888887 -4.35325621 -5.75709658 -4.21113635 0 0 Z " fill="#000000" transform="translate(104.97824096679688,133.447021484375)"/>
<path d="M0 0 C3.26782639 2.72318866 4.58890308 4.24402886 5.546875 8.3359375 C5.8224265 11.78033119 5.78387804 14.7619236 3.89648438 17.74291992 C3.38408203 18.29568604 2.87167969 18.84845215 2.34375 19.41796875 C1.71049805 20.1027832 1.07724609 20.78759766 0.42480469 21.49316406 C-4.45454979 26.53758732 -9.36321614 31.54915515 -14.32617188 36.51147461 C-16.26461235 38.45212904 -18.19487862 40.40068494 -20.125 42.34960938 C-21.35888626 43.58642527 -22.59324418 44.82277086 -23.828125 46.05859375 C-24.40314758 46.64080185 -24.97817017 47.22300995 -25.57061768 47.82286072 C-29.15452729 51.38626611 -31.22278471 52.83233818 -36.3125 53.3125 C-40.73267921 52.93790854 -42.62729281 51.83614013 -46 49 C-48.35125704 46.10011632 -48.9558484 44.34059803 -49.4375 40.625 C-48.53914326 33.1814727 -43.79439994 28.34904582 -38.66015625 23.296875 C-38.05618515 22.6924054 -37.45221405 22.08793579 -36.8299408 21.46514893 C-35.56022721 20.19776171 -34.28685398 18.9340312 -33.01000977 17.67382812 C-31.0628034 15.75029971 -29.12934897 13.81370595 -27.19726562 11.875 C-25.95652031 10.63982978 -24.71500957 9.40542786 -23.47265625 8.171875 C-22.89854507 7.59685242 -22.3244339 7.02182983 -21.73292542 6.42938232 C-15.12301681 -0.06540371 -9.2516669 -3.93882848 0 0 Z " fill="#000000" transform="translate(422,132)"/>
</svg>
